{"accessors":[{"bufferView":0,"componentType":5126,"count":24,"max":[1.0,0.0,0.0,0.0,0.0,1.0,0.0,0.0,0.0,0.0,1.0,0.0,0.5674539804458618,1.2595069408416748,0.16363200545310974,1.0],"min":[1.0,0.0,0.0,0.0,0.0,1.0,0.0,0.0,0.0,0.0,1.0,0.0,-0.5674530267715454,0.020648976787924767,-0.023000000044703484,1.0],"normalized":false,"type":"MAT4"},{"bufferView":1,"componentType":5126,"count":362,"max":[0.5894610285758972,0.0,0.1309179961681366],"min":[-0.5894610285758972,-1.4499200582504272,-0.19497700035572052],"normalized":false,"type":"VEC3"},{"bufferView":2,"componentType":5126,"count":362,"max":[1.0,0.0,-1.5259021893143654e-05,1.0],"min":[1.0,0.0,-4.5778462663292885e-05,-1.0],"normalized":false,"type":"VEC4"},{"bufferView":3,"componentType":5126,"count":362,"max":[1.0,1.0,1.0],"min":[-1.0,-1.0,-1.0],"normalized":false,"type":"VEC3"},{"bufferView":4,"componentType":5126,"count":362,"max":[0.0,1.0],"min":[0.0,1.0],"normalized":false,"type":"VEC2"},{"bufferView":5,"componentType":5121,"count":362,"max":[22,22,22,21],"min":[0,0,0,0],"normalized":false,"type":"VEC4"},{"bufferView":6,"componentType":5126,"count":362,"max":[1.0,0.4983367323875427,0.15691331028938293,0.09198419004678726],"min":[0.3877588212490082,0.0,0.0,0.0],"normalized":false,"type":"VEC4"},{"bufferView":7,"componentType":5123,"count":768,"max":[361],"min":[0],"normalized":false,"type":"SCALAR"},{"bufferView":8,"componentType":5126,"count":1,"max":[0.0],"min":[0.0],"normalized":false,"type":"SCALAR"},{"bufferView":9,"componentType":5126,"count":1,"max":[0.0,-0.6859999895095825,0.0],"min":[0.0,-0.6859999895095825,0.0],"normalized":false,"type":"VEC3"},{"bufferView":10,"componentType":5126,"count":1,"max":[0.06803900003433228,0.07199999690055847,-0.0010000000474974513],"min":[0.06803900003433228,0.07199999690055847,-0.0010000000474974513],"normalized":false,"type":"VEC3"},{"bufferView":11,"componentType":5126,"count":1,"max":[0.00904100015759468,0.25978198647499084,-0.05698699876666069],"min":[0.00904100015759468,0.25978198647499084,-0.05698699876666069],"normalized":false,"type":"VEC3"},{"bufferView":12,"componentType":5126,"count":1,"max":[0.0014140000566840172,0.26921799778938293,0.05998700112104416],"min":[0.0014140000566840172,0.26921799778938293,0.05998700112104416],"normalized":false,"type":"VEC3"},{"bufferView":13,"componentType":5126,"count":1,"max":[0.0010809999657794833,0.06300000101327896,-0.03449999913573265],"min":[0.0010809999657794833,0.06300000101327896,-0.03449999913573265],"normalized":false,"type":"VEC3"},{"bufferView":14,"componentType":5126,"count":1,"max":[-0.06803900003433228,0.07199999690055847,-0.0010000000474974513],"min":[-0.06803900003433228,0.07199999690055847,-0.0010000000474974513],"normalized":false,"type":"VEC3"},{"bufferView":15,"componentType":5126,"count":1,"max":[-0.00904100015759468,0.25978198647499084,-0.05698699876666069],"min":[-0.00904100015759468,0.25978198647499084,-0.05698699876666069],"normalized":false,"type":"VEC3"},{"bufferView":16,"componentType":5126,"count":1,"max":[-0.0014149999478831887,0.26921799778938293,0.05998700112104416],"min":[-0.0014149999478831887,0.26921799778938293,0.05998700112104416],"normalized":false,"type":"VEC3"},{"bufferView":17,"componentType":5126,"count":1,"max":[-0.0010809999657794833,0.06300000101327896,-0.03449999913573265],"min":[-0.0010809999657794833,0.06300000101327896,-0.03449999913573265],"normalized":false,"type":"VEC3"},{"bufferView":18,"componentType":5126,"count":1,"max":[0.0,-0.17100000381469727,0.013000000268220901],"min":[0.0,-0.17100000381469727,0.013000000268220901],"normalized":false,"type":"VEC3"},{"bufferView":19,"componentType":5126,"count":1,"max":[0.0,-0.2179969996213913,-0.003000000026077032],"min":[0.0,-0.2179969996213913,-0.003000000026077032],"normalized":false,"type":"VEC3"},{"bufferView":20,"componentType":5126,"count":1,"max":[0.08799999952316284,0.0010000000474974513,0.0],"min":[0.08799999952316284,0.0010000000474974513,0.0],"normalized":false,"type":"VEC3"},{"bufferView":21,"componentType":5126,"count":7,"max":[10.375082969665527],"min":[0.0],"normalized":false,"type":"SCALAR"},{"bufferView":22,"componentType":5126,"count":7,"max":[0.0,0.02343900501728058,0.34746408462524414,1.0],"min":[-0.032460007816553116,9.999999974752427e-07,-3.999999989900971e-06,0.9368382096290588],"normalized":false,"type":"VEC4"},{"bufferView":23,"componentType":5126,"count":1,"max":[0.21799899637699127,0.11000099778175354,0.013000000268220901],"min":[0.21799899637699127,0.11000099778175354,0.013000000268220901],"normalized":false,"type":"VEC3"},{"bufferView":24,"componentType":5126,"count":1,"max":[0.14100000262260437,0.08241000026464462,-0.08799999952316284],"min":[0.14100000262260437,0.08241000026464462,-0.08799999952316284],"normalized":false,"type":"VEC3"},{"bufferView":25,"componentType":5126,"count":1,"max":[-0.08799999952316284,0.0010000000474974513,0.0],"min":[-0.08799999952316284,0.0010000000474974513,0.0],"normalized":false,"type":"VEC3"},{"bufferView":26,"componentType":5126,"count":7,"max":[10.375082969665527],"min":[0.0],"normalized":false,"type":"SCALAR"},{"bufferView":27,"componentType":5126,"count":7,"max":[0.004011998884379864,0.04950498789548874,3.999999989900971e-06,1.0],"min":[3.000000106112566e-06,-1.9999999949504854e-06,-0.3502599000930786,0.9353347420692444],"normalized":false,"type":"VEC4"},{"bufferView":28,"componentType":5126,"count":1,"max":[-0.21799999475479126,0.10999999940395355,0.013000000268220901],"min":[-0.21799999475479126,0.10999999940395355,0.013000000268220901],"normalized":false,"type":"VEC3"},{"bufferView":29,"componentType":5126,"count":1,"max":[-0.14100000262260437,0.08241099864244461,-0.08799999952316284],"min":[-0.14100000262260437,0.08241099864244461,-0.08799999952316284],"normalized":false,"type":"VEC3"},{"bufferView":30,"componentType":5126,"count":1,"max":[0.0,-0.051500000059604645,-0.010499999858438969],"min":[0.0,-0.051500000059604645,-0.010499999858438969],"normalized":false,"type":"VEC3"},{"bufferView":31,"componentType":5126,"count":14,"max":[10.375082969665527],"min":[0.0],"normalized":false,"type":"SCALAR"},{"bufferView":32,"componentType":5126,"count":14,"max":[0.12106297165155411,0.0,0.0,1.0],"min":[9.999999974752427e-07,0.0,0.0,0.9926447868347168],"normalized":false,"type":"VEC4"},{"bufferView":33,"componentType":5126,"count":1,"max":[0.0,-0.06650400161743164,-0.0005000000237487257],"min":[0.0,-0.06650400161743164,-0.0005000000237487257],"normalized":false,"type":"VEC3"},{"bufferView":34,"componentType":5126,"count":24,"max":[10.375082969665527],"min":[0.0],"normalized":false,"type":"SCALAR"},{"bufferView":35,"componentType":5126,"count":24,"max":[0.036354001611471176,0.0,0.0,1.0],"min":[0.0,0.0,0.0,0.9993389844894409],"normalized":false,"type":"VEC4"}],"animations":[{"channels":[{"sampler":0,"target":{"node":1,"path":"translation"}},{"sampler":1,"target":{"node":2,"path":"translation"}},{"sampler":2,"target":{"node":3,"path":"translation"}},{"sampler":3,"target":{"node":4,"path":"translation"}},{"sampler":4,"target":{"node":5,"path":"translation"}},{"sampler":5,"target":{"node":7,"path":"translation"}},{"sampler":6,"target":{"node":8,"path":"translation"}},{"sampler":7,"target":{"node":9,"path":"translation"}},{"sampler":8,"target":{"node":10,"path":"translation"}},{"sampler":9,"target":{"node":12,"path":"translation"}},{"sampler":10,"target":{"node":13,"path":"translation"}},{"sampler":11,"target":{"node":14,"path":"translation"}},{"sampler":12,"target":{"node":14,"path":"rotation"}},{"sampler":13,"target":{"node":15,"path":"translation"}},{"sampler":14,"target":{"node":16,"path":"translation"}},{"sampler":15,"target":{"node":18,"path":"translation"}},{"sampler":16,"target":{"node":18,"path":"rotation"}},{"sampler":17,"target":{"node":19,"path":"translation"}},{"sampler":18,"target":{"node":20,"path":"translation"}},{"sampler":19,"target":{"node":22,"path":"translation"}},{"sampler":20,"target":{"node":22,"path":"rotation"}},{"sampler":21,"target":{"node":23,"path":"translation"}},{"sampler":22,"target":{"node":23,"path":"rotation"}}],"name":"res___qbo_animation_0","samplers":[{"input":8,"interpolation":"LINEAR","output":9},{"input":8,"interpolation":"LINEAR","output":10},{"input":8,"interpolation":"LINEAR","output":11},{"input":8,"interpolation":"LINEAR","output":12},{"input":8,"interpolation":"LINEAR","output":13},{"input":8,"interpolation":"LINEAR","output":14},{"input":8,"interpolation":"LINEAR","output":15},{"input":8,"interpolation":"LINEAR","output":16},{"input":8,"interpolation":"LINEAR","output":17},{"input":8,"interpolation":"LINEAR","output":18},{"input":8,"interpolation":"LINEAR","output":19},{"input":8,"interpolation":"LINEAR","output":20},{"input":21,"interpolation":"LINEAR","output":22},{"input":8,"interpolation":"LINEAR","output":23},{"input":8,"interpolation":"LINEAR","output":24},{"input":8,"interpolation":"LINEAR","output":25},{"input":26,"interpolation":"LINEAR","output":27},{"input":8,"interpolation":"LINEAR","output":28},{"input":8,"interpolation":"LINEAR","output":29},{"input":8,"interpolation":"LINEAR","output":30},{"input":31,"interpolation":"LINEAR","output":32},{"input":8,"interpolation":"LINEAR","output":33},{"input":34,"interpolation":"LINEAR","output":35}]}],"asset":{"generator":"Godot Engine v4.6.beta.custom_build@5bea1a9a52d9ea01098167bfbf000d02d72a48e2","version":"2.0"},"bufferViews":[{"buffer":0,"byteLength":1536},{"buffer":0,"byteLength":4344,"byteOffset":1536,"byteStride":12,"target":34962},{"buffer":0,"byteLength":5792,"byteOffset":5880,"byteStride":16,"target":34962},{"buffer":0,"byteLength":4344,"byteOffset":11672,"byteStride":12,"target":34962},{"buffer":0,"byteLength":2896,"byteOffset":16016,"byteStride":8,"target":34962},{"buffer":0,"byteLength":1448,"byteOffset":18912,"byteStride":4,"target":34962},{"buffer":0,"byteLength":5792,"byteOffset":20360,"byteStride":16,"target":34962},{"buffer":0,"byteLength":1536,"byteOffset":26152,"target":34963},{"buffer":0,"byteLength":4,"byteOffset":27688},{"buffer":0,"byteLength":12,"byteOffset":27692},{"buffer":0,"byteLength":12,"byteOffset":27704},{"buffer":0,"byteLength":12,"byteOffset":27716},{"buffer":0,"byteLength":12,"byteOffset":27728},{"buffer":0,"byteLength":12,"byteOffset":27740},{"buffer":0,"byteLength":12,"byteOffset":27752},{"buffer":0,"byteLength":12,"byteOffset":27764},{"buffer":0,"byteLength":12,"byteOffset":27776},{"buffer":0,"byteLength":12,"byteOffset":27788},{"buffer":0,"byteLength":12,"byteOffset":27800},{"buffer":0,"byteLength":12,"byteOffset":27812},{"buffer":0,"byteLength":12,"byteOffset":27824},{"buffer":0,"byteLength":28,"byteOffset":27836},{"buffer":0,"byteLength":112,"byteOffset":27864},{"buffer":0,"byteLength":12,"byteOffset":27976},{"buffer":0,"byteLength":12,"byteOffset":27988},{"buffer":0,"byteLength":12,"byteOffset":28000},{"buffer":0,"byteLength":28,"byteOffset":28012},{"buffer":0,"byteLength":112,"byteOffset":28040},{"buffer":0,"byteLength":12,"byteOffset":28152},{"buffer":0,"byteLength":12,"byteOffset":28164},{"buffer":0,"byteLength":12,"byteOffset":28176},{"buffer":0,"byteLength":56,"byteOffset":28188},{"buffer":0,"byteLength":224,"byteOffset":28244},{"buffer":0,"byteLength":12,"byteOffset":28468},{"buffer":0,"byteLength":96,"byteOffset":28480},{"buffer":0,"byteLength":384,"byteOffset":28576}],"buffers":[{"byteLength":28960,"uri":"qbo0.bin"}],"extensionsUsed":["GODOT_single_root"],"materials":[{"name":"Default-effect","pbrMetallicRoughness":{"baseColorFactor":[0.6038272976875305,0.6038272976875305,0.6038272976875305,1.0],"metallicFactor":0.5,"roughnessFactor":1.0}}],"meshes":[{"name":"Proxy2","primitives":[{"attributes":{"JOINTS_0":5,"NORMAL":3,"POSITION":1,"TANGENT":2,"TEXCOORD_0":4,"WEIGHTS_0":6},"indices":7,"material":0,"mode":4}]}],"nodes":[{"children":[1,25],"name":"qboRoot"},{"children":[2,7,12],"name":"torso_joint_1_2"},{"children":[3],"name":"leg_joint_L_1_2"},{"children":[4],"name":"leg_joint_L_2_2"},{"children":[5],"name":"leg_joint_L_3_2"},{"children":[6],"name":"leg_joint_L_5_2"},{"name":"Site_2"},{"children":[8],"name":"leg_joint_R_1_2"},{"children":[9],"name":"leg_joint_R_2_2"},{"children":[10],"name":"leg_joint_R_3_2"},{"children":[11],"name":"leg_joint_R_5_2"},{"name":"Site2_2"},{"children":[13],"name":"torso_joint_2_2"},{"children":[14,18,22],"name":"torso_joint_3_2"},{"children":[15],"name":"arm_joint_L_1_2"},{"children":[16],"name":"arm_joint_L_2_2"},{"children":[17],"name":"arm_joint_L_3_2"},{"name":"Site3_2"},{"children":[19],"name":"arm_joint_R_1_2"},{"children":[20],"name":"arm_joint_R_2_2"},{"children":[21],"name":"arm_joint_R_3_2"},{"name":"Site4_2"},{"children":[23],"name":"neck_joint_1_2"},{"children":[24],"name":"neck_joint_2_2"},{"name":"Site5_2"},{"mesh":0,"name":"Proxy","skin":0}],"scene":0,"scenes":[{"nodes":[0]}],"skins":[{"inverseBindMatrices":0,"joints":[1,2,3,4,5,6,7,8,9,10,11,12,13,14,15,16,17,18,19,20,21,22,23,24],"name":"Skin","skeleton":0}]}